<svg xmlns="http://www.w3.org/2000/svg" width="1280" height="800" viewBox="0 0 1280 800" role="img" aria-labelledby="title desc">
  <title id="title">JobOps workflow preview placeholder</title>
  <desc id="desc">A placeholder preview showing the JobOps workflow concept with job board columns, application details, resume versions, and backup controls.</desc>
  <rect width="1280" height="800" fill="#f5f7f6"/>
  <rect x="72" y="56" width="1136" height="688" rx="28" fill="#ffffff" stroke="#d7ded9"/>
  <text x="112" y="122" fill="#111827" font-family="Arial, sans-serif" font-size="34" font-weight="700">Job search operations workflow</text>
  <text x="112" y="156" fill="#64748b" font-family="Arial, sans-serif" font-size="20">Preview placeholder for portfolio screenshots</text>
  <rect x="112" y="204" width="250" height="416" rx="18" fill="#f8fafc" stroke="#d9dee7"/>
  <rect x="394" y="204" width="250" height="416" rx="18" fill="#f8fafc" stroke="#d9dee7"/>
  <rect x="676" y="204" width="250" height="416" rx="18" fill="#f8fafc" stroke="#d9dee7"/>
  <rect x="958" y="204" width="138" height="416" rx="18" fill="#f8fafc" stroke="#d9dee7"/>
  <text x="140" y="250" fill="#111827" font-family="Arial, sans-serif" font-size="22" font-weight="700">Job Board</text>
  <rect x="140" y="286" width="194" height="72" rx="12" fill="#ffffff" stroke="#d9dee7"/>
  <text x="158" y="316" fill="#334155" font-family="Arial, sans-serif" font-size="16">Applied</text>
  <text x="158" y="340" fill="#64748b" font-family="Arial, sans-serif" font-size="14">Frontend role</text>
  <rect x="140" y="378" width="194" height="72" rx="12" fill="#ffffff" stroke="#d9dee7"/>
  <text x="158" y="408" fill="#334155" font-family="Arial, sans-serif" font-size="16">Interviewing</text>
  <text x="158" y="432" fill="#64748b" font-family="Arial, sans-serif" font-size="14">Operations role</text>
  <text x="422" y="250" fill="#111827" font-family="Arial, sans-serif" font-size="22" font-weight="700">Application Detail</text>
  <rect x="422" y="286" width="194" height="22" rx="11" fill="#dbeafe"/>
  <rect x="422" y="328" width="142" height="14" rx="7" fill="#cbd5e1"/>
  <rect x="422" y="362" width="166" height="14" rx="7" fill="#cbd5e1"/>
  <rect x="422" y="396" width="128" height="14" rx="7" fill="#cbd5e1"/>
  <rect x="422" y="468" width="194" height="76" rx="12" fill="#ffffff" stroke="#d9dee7"/>
  <text x="442" y="500" fill="#334155" font-family="Arial, sans-serif" font-size="16">Notes and posting details</text>
  <text x="704" y="250" fill="#111827" font-family="Arial, sans-serif" font-size="22" font-weight="700">Resume Versions</text>
  <rect x="704" y="286" width="194" height="64" rx="12" fill="#ffffff" stroke="#d9dee7"/>
  <text x="722" y="322" fill="#334155" font-family="Arial, sans-serif" font-size="16">Resume v1</text>
  <rect x="704" y="370" width="194" height="64" rx="12" fill="#ffffff" stroke="#d9dee7"/>
  <text x="722" y="406" fill="#334155" font-family="Arial, sans-serif" font-size="16">Resume v2</text>
  <rect x="704" y="454" width="194" height="64" rx="12" fill="#ffffff" stroke="#d9dee7"/>
  <text x="722" y="490" fill="#334155" font-family="Arial, sans-serif" font-size="16">Attached PDF</text>
  <text x="986" y="250" fill="#111827" font-family="Arial, sans-serif" font-size="22" font-weight="700">Backup</text>
  <rect x="986" y="286" width="82" height="82" rx="16" fill="#ecfdf5" stroke="#bbf7d0"/>
  <text x="1027" y="336" fill="#166534" font-family="Arial, sans-serif" font-size="30" font-weight="700" text-anchor="middle">DB</text>
  <rect x="986" y="398" width="82" height="34" rx="10" fill="#1f2937"/>
  <text x="1027" y="421" fill="#ffffff" font-family="Arial, sans-serif" font-size="14" text-anchor="middle">Export</text>
  <rect x="986" y="452" width="82" height="34" rx="10" fill="#ffffff" stroke="#d9dee7"/>
  <text x="1027" y="475" fill="#334155" font-family="Arial, sans-serif" font-size="14" text-anchor="middle">Import</text>
  <path d="M362 412 H394" stroke="#94a3b8" stroke-width="4" stroke-linecap="round"/>
  <path d="M644 412 H676" stroke="#94a3b8" stroke-width="4" stroke-linecap="round"/>
  <path d="M926 412 H958" stroke="#94a3b8" stroke-width="4" stroke-linecap="round"/>
  <text x="112" y="708" fill="#64748b" font-family="Arial, sans-serif" font-size="18">Replace with captured Job Board, Application Detail, Resume Versions, and Settings screenshots.</text>
</svg>
